<?xml version="1.0" encoding="UTF-8"?>
<svg xmlns="http://www.w3.org/2000/svg" xmlns:xlink="http://www.w3.org/1999/xlink" width="20px" height="20px" viewBox="0 0 20 20" version="1.1">
<g id="surface1">
<path style=" stroke:none;fill-rule:nonzero;fill:rgb(0%,0%,0%);fill-opacity:1;" d="M 15.597656 0.8125 C 15.496094 0.828125 15.402344 0.878906 15.339844 0.964844 L 14.160156 2.4375 C 13.933594 2.152344 13.585938 1.964844 13.199219 1.964844 L 11.597656 1.964844 C 11.074219 1.964844 10.628906 2.308594 10.449219 2.777344 L 6.574219 2.777344 C 5.925781 1.824219 4.832031 1.199219 3.601562 1.199219 C 1.617188 1.199219 0 2.820312 0 4.796875 C 0 6.035156 0.625 7.125 1.574219 7.777344 C 1.582031 7.78125 1.582031 7.785156 1.589844 7.785156 C 1.589844 7.792969 1.589844 7.792969 1.589844 7.800781 L 5.902344 15.972656 L 2.75 15.972656 C 2.089844 15.972656 1.574219 16.542969 1.574219 17.199219 L 1.574219 19.597656 C 1.574219 19.714844 1.621094 19.824219 1.699219 19.902344 C 1.777344 19.980469 1.886719 20.027344 2 20.027344 L 15.597656 20.027344 C 15.714844 20.027344 15.824219 19.980469 15.902344 19.902344 C 15.984375 19.824219 16.027344 19.714844 16.027344 19.597656 L 16.027344 17.199219 C 16.027344 16.542969 15.511719 15.972656 14.851562 15.972656 L 11.964844 15.972656 L 6.785156 6.824219 L 10.449219 6.824219 C 10.628906 7.292969 11.074219 7.636719 11.597656 7.636719 L 13.199219 7.636719 C 13.585938 7.636719 13.933594 7.449219 14.160156 7.160156 L 15.339844 8.640625 C 15.457031 8.78125 15.65625 8.824219 15.828125 8.738281 L 19.785156 6.574219 C 19.953125 6.488281 20.027344 6.292969 19.972656 6.113281 C 19.910156 5.933594 19.738281 5.828125 19.550781 5.847656 C 19.503906 5.855469 19.457031 5.875 19.410156 5.902344 L 15.75 7.910156 L 14.4375 6.25 L 14.4375 3.363281 L 15.75 1.699219 L 19.410156 3.699219 C 19.535156 3.78125 19.695312 3.789062 19.820312 3.71875 C 19.949219 3.644531 20.027344 3.507812 20.019531 3.363281 C 20.011719 3.214844 19.921875 3.082031 19.785156 3.027344 L 15.828125 0.863281 C 15.753906 0.824219 15.675781 0.808594 15.597656 0.8125 Z M 3.601562 2 C 4.589844 2 5.464844 2.511719 5.964844 3.289062 C 5.964844 3.292969 5.96875 3.304688 5.972656 3.3125 C 5.984375 3.332031 5.988281 3.347656 6 3.363281 C 6.007812 3.386719 6.023438 3.414062 6.035156 3.4375 C 6.042969 3.449219 6.058594 3.449219 6.0625 3.464844 C 6.070312 3.472656 6.078125 3.488281 6.085938 3.5 C 6.289062 3.886719 6.398438 4.328125 6.398438 4.796875 C 6.398438 5.261719 6.285156 5.703125 6.085938 6.085938 C 6.082031 6.089844 6.078125 6.097656 6.074219 6.101562 C 6.070312 6.105469 6.066406 6.117188 6.0625 6.125 C 6.0625 6.125 6.066406 6.136719 6.0625 6.140625 C 6.050781 6.144531 6.042969 6.152344 6.035156 6.160156 C 6.007812 6.199219 5.988281 6.234375 5.972656 6.277344 C 5.96875 6.285156 5.964844 6.300781 5.964844 6.3125 C 5.464844 7.089844 4.589844 7.597656 3.601562 7.597656 C 2.050781 7.597656 0.800781 6.347656 0.800781 4.796875 C 0.800781 3.25 2.050781 2 3.601562 2 Z M 3.601562 2.535156 C 3.574219 2.535156 3.550781 2.550781 3.527344 2.550781 C 3.5 2.558594 3.472656 2.566406 3.449219 2.574219 C 2.285156 2.660156 1.339844 3.613281 1.339844 4.796875 C 1.339844 6.042969 2.359375 7.0625 3.601562 7.0625 C 4.839844 7.0625 5.863281 6.042969 5.863281 4.796875 C 5.863281 3.617188 4.925781 2.664062 3.761719 2.574219 C 3.757812 2.574219 3.757812 2.5625 3.75 2.5625 C 3.722656 2.554688 3.691406 2.550781 3.660156 2.550781 C 3.640625 2.550781 3.621094 2.535156 3.601562 2.535156 Z M 11.597656 2.839844 L 13.199219 2.839844 C 13.40625 2.839844 13.5625 2.996094 13.5625 3.199219 L 13.5625 6.398438 C 13.5625 6.605469 13.40625 6.765625 13.199219 6.765625 L 11.597656 6.765625 C 11.394531 6.765625 11.238281 6.605469 11.238281 6.398438 L 11.238281 3.199219 C 11.238281 2.996094 11.394531 2.839844 11.597656 2.839844 Z M 3.574219 3.339844 C 3.582031 3.339844 3.589844 3.339844 3.601562 3.339844 C 4.40625 3.339844 5.0625 3.996094 5.0625 4.796875 C 5.0625 5.605469 4.40625 6.261719 3.601562 6.261719 C 2.792969 6.261719 2.136719 5.605469 2.136719 4.796875 C 2.136719 4.003906 2.78125 3.351562 3.574219 3.339844 Z M 7 3.625 L 10.363281 3.625 L 10.363281 5.972656 L 7 5.972656 C 7.128906 5.605469 7.199219 5.214844 7.199219 4.796875 C 7.199219 4.386719 7.128906 3.996094 7 3.625 Z M 6.152344 7.324219 L 11.035156 15.972656 L 6.785156 15.972656 L 2.738281 8.289062 C 3.015625 8.355469 3.300781 8.402344 3.601562 8.402344 C 4.597656 8.402344 5.496094 7.984375 6.152344 7.324219 Z M 2.75 16.824219 L 6.4375 16.824219 C 6.535156 16.867188 6.652344 16.867188 6.75 16.824219 L 14.851562 16.824219 C 15.023438 16.824219 15.175781 16.972656 15.175781 17.199219 L 15.175781 19.171875 L 2.425781 19.171875 L 2.425781 17.199219 C 2.425781 16.972656 2.574219 16.824219 2.75 16.824219 Z M 2.75 16.824219 "/>
</g>
</svg>
